<svg width="174" height="34" viewBox="0 0 174 34" fill="none" xmlns="http://www.w3.org/2000/svg">
<path d="M22 0.8C21 0.3 20 0 18.8 0H0V2H23.7C23.2 1.5 22.7 1.1 22 0.8Z" fill="white"/>
<path d="M6.6 8H0V12H6.6V8Z" fill="white"/>
<path d="M20.1 9.9C20.1 10.7 19.9 11.4 19.7 12H26C26.4 10.9 26.6 9.8 26.6 8.7C26.6 8.5 26.6 8.3 26.6 8H19.8C19.9 8.6 20.1 9.2 20.1 9.9Z" fill="white"/>
<path d="M6.6 19.4H17.4C18 19.4 18.5 19.5 19 19.8C19.5 20 19.9 20.4 20.2 20.8C20.6 21.2 20.8 21.7 21 22.3C21.1 22.5 21.2 22.8 21.2 23.1H27.7C27.4 21.8 27 20.7 26.2 19.8C25.1 18.3 23.5 17.3 21.6 16.7C22.5 16.3 23.3 15.8 23.9 15.1H0V23.1H6.6V19.4Z" fill="white"/>
<path d="M21.3 24C21.3 24.6 21.2 25.2 21 25.7C20.8 26.2 20.5 26.7 20.1 27.1C19.7 27.5 19.3 27.8 18.7 28C18.2 28.2 17.6 28.3 17 28.3H6.6V24H0V34H17C18.5 34 19.9 33.8 21.2 33.4C22.5 33 23.7 32.5 24.7 31.7C25.7 31 26.5 30.1 27.1 29C27.7 27.9 28 26.7 28 25.2C28 24.8 28 24.4 27.9 24H21.3Z" fill="white"/>
<path d="M44.6 0H38V2H44.6V0Z" fill="white"/>
<path d="M44.6 8H38V12H44.6V8Z" fill="white"/>
<path d="M44.6 24H38V34H62V28.2H44.6V24Z" fill="white"/>
<path d="M44.6 15H38V23H44.6V15Z" fill="white"/>
<path d="M76.6 8H70V12H76.6V8Z" fill="white"/>
<path d="M76.6 19.3H91.3V15H70V23H76.6V19.3Z" fill="white"/>
<path d="M93.6 0H70V2H93.6V0Z" fill="white"/>
<path d="M76.6 24H70V34H94V28.2H76.6V24Z" fill="white"/>
<path d="M164.5 1.3C162.5 0.4 160 0 157.2 0H145V2H165.9C165.5 1.8 165 1.5 164.5 1.3Z" fill="white"/>
<path d="M164.7 25C163.9 26 162.8 26.8 161.5 27.4C160.2 28 158.8 28.3 157.2 28.3H151.6V24H145V34H157.2C159.8 34 162.1 33.6 164.1 32.8C166.2 32 167.9 30.8 169.4 29.4C170.9 27.9 172 26.1 172.8 24.1H165.4C165.2 24.3 165 24.7 164.7 25Z" fill="white"/>
<path d="M164.7 8.9C165.5 9.8 166.1 10.8 166.5 12H173.4C173.3 11.4 173.1 10.9 172.9 10.4C172.6 9.6 172.3 8.8 171.9 8H163.8C164.1 8.3 164.4 8.6 164.7 8.9Z" fill="white"/>
<path d="M173.9 15H167.2C167.3 15.6 167.3 16.3 167.3 17C167.3 18.6 167.1 20.1 166.6 21.5C166.4 22.1 166.2 22.6 165.9 23.1H173C173.6 21.3 173.9 19.3 173.9 17.1C174 16.3 174 15.6 173.9 15Z" fill="white"/>
<path d="M151.6 8H145V12H151.6V8Z" fill="white"/>
<path d="M151.6 15H145V23H151.6V15Z" fill="white"/>
<path d="M115.7 8H104V12H118.9L115.7 8Z" fill="white"/>
<path d="M109.1 0H104V2H110.8L109.1 0Z" fill="white"/>
<path d="M134 0H127.4V2H134V0Z" fill="white"/>
<path d="M110.6 15H104V23H110.6V15Z" fill="white"/>
<path d="M128.6 34H134V24H120.4L128.6 34Z" fill="white"/>
<path d="M127.4 22.3L121.4 15H112.9L119.5 23H134V15H127.4V22.3Z" fill="white"/>
<path d="M110.6 24H104V34H110.6V24Z" fill="white"/>
<path d="M134 8H127.4V12H134V8Z" fill="white"/>
</svg>
