<svg width="108" height="20" viewBox="0 0 108 20" fill="none" xmlns="http://www.w3.org/2000/svg">
<path d="M74.6726 9.43511C74.6726 8.52397 74.1228 7.6705 72.8049 7.6705C70.5202 7.6705 68.9042 10.7075 68.9042 13.0325C68.9042 14.5784 69.5535 16.059 71.4223 16.059C72.1921 16.0743 72.9511 15.8632 73.6058 15.4515L73.3882 14.8807C72.8342 15.2317 72.1935 15.4184 71.5392 15.4197C70.6884 15.4197 70.0715 14.9627 69.7891 14.0523C69.6452 13.3885 69.6218 12.7066 69.7225 12.0356C72.336 12.0555 74.6707 11.4861 74.6707 9.43311L74.6726 9.43511ZM72.6725 8.30833C73.4254 8.30833 73.9226 8.71222 73.9226 9.45179V9.46848C73.9226 11.0662 71.9225 11.4181 69.8378 11.4018C70.335 9.65346 71.439 8.30833 72.6725 8.30833V8.30833ZM81.275 7.83735H80.4255L78.7689 9.93928C78.3847 10.4101 78.2023 10.6986 77.8651 11.183H77.8309C77.6474 10.7623 77.4981 10.3415 77.3147 9.87254L76.4801 7.83771H75.7139L77.3704 11.7859L74.0573 15.9041H74.9081L76.7157 13.6172C77.027 13.2131 77.3164 12.7924 77.5827 12.3568H77.6151C77.8147 12.9277 77.9298 13.2482 78.1637 13.7859L79.0144 15.9041H79.7968L78.1043 11.7891L81.2717 7.83735H81.275ZM85.6259 7.6705C84.5597 7.6705 83.5582 8.35966 82.8351 9.46848H82.8028L83.0528 7.83753H82.3693C82.2704 8.57747 82.1193 9.55317 81.9178 10.6123L80.326 19.2032H81.0437L81.6786 15.723H81.7128C82.2092 15.975 82.7596 16.0984 83.3136 16.0766C85.8659 16.0766 87.7167 13.0171 87.7167 10.2949C87.7149 8.96739 87.1483 7.67249 85.6303 7.67249L85.6259 7.6705ZM83.3758 15.4362C82.7254 15.4362 82.1923 15.2679 81.8263 14.981L82.3414 12.2019C82.7932 9.76445 84.275 8.30235 85.4092 8.30235C86.5927 8.30235 86.9604 9.37907 86.9604 10.3372C86.9604 12.4114 85.4935 15.4364 83.376 15.4364L83.3758 15.4362ZM92.3957 7.6705C90.1111 7.6705 88.495 10.7075 88.495 13.0325C88.495 14.5784 89.1456 16.059 91.0131 16.059C91.784 16.0743 92.5426 15.8632 93.1967 15.4515L92.9799 14.8807C92.4253 15.2316 91.7839 15.4179 91.1291 15.4183C90.278 15.4183 89.6619 14.9631 89.379 14.0527C89.2351 13.3925 89.2121 12.7106 89.311 12.0432C91.9286 12.0595 94.2627 11.4901 94.2627 9.4371C94.2617 8.53031 93.712 7.67249 92.3957 7.67249V7.6705ZM93.5118 9.46848C93.5118 11.0662 91.5117 11.4181 89.4274 11.4018C89.9274 9.65346 91.0282 8.30833 92.2617 8.30833C93.0148 8.30833 93.5118 8.71222 93.5118 9.45179V9.46848V9.46848ZM96.5299 9.60377H96.4967C96.5961 8.89738 96.6639 8.35966 96.7136 7.83916H96.0643C95.9977 8.54519 95.8808 9.45324 95.6812 10.4783L94.6649 15.9087H95.3826L96.1488 11.8085C96.4816 10.0439 97.6561 8.44653 98.7011 8.44653C98.791 8.44109 98.8792 8.44653 98.9673 8.46285L99.1184 7.69026C99.0357 7.69026 98.9187 7.67213 98.818 7.67213C97.818 7.6685 97.0194 8.52451 96.5355 9.60178L96.5299 9.60377ZM101.331 15.4199C100.831 15.4199 100.614 15.1343 100.614 14.6604C100.626 14.1909 100.682 13.7237 100.781 13.2648L101.661 8.46013H103.545L103.68 7.83753H101.798L102.149 6.07292L101.351 6.39211L101.084 7.83753H99.917L99.8019 8.4614H100.953L100.05 13.2692C99.935 13.7534 99.8738 14.2503 99.8666 14.7491C99.8666 15.4219 100.235 16.0603 101.185 16.0603C101.451 16.0603 101.714 16.0204 101.969 15.9442L101.92 15.3566C101.731 15.411 101.535 15.4346 101.338 15.4237L101.331 15.4199ZM106.599 8.30833C107 8.31784 107.391 8.43356 107.733 8.64384L108 8.02124C107.767 7.8359 107.233 7.66886 106.682 7.66886C105.265 7.66886 104.249 8.69535 104.249 9.95579C104.249 10.7157 104.682 11.4357 105.482 11.9562C106.235 12.444 106.566 12.9319 106.566 13.7371C106.566 14.662 105.849 15.4183 104.8 15.4183C104.297 15.4165 103.809 15.2569 103.399 14.9631L103.116 15.5706C103.382 15.7901 104.02 16.0585 104.733 16.0585C106.117 16.0585 107.293 15.168 107.293 13.5358C107.293 12.7124 106.825 11.9743 106.059 11.452C105.408 10.9968 104.974 10.5778 104.974 9.82158C104.98 9.00003 105.631 8.31087 106.599 8.31087L106.599 8.30833ZM23.3191 11.0142C22.7435 10.6986 22.4424 10.4313 22.4424 10.0653C22.4424 9.59924 22.8551 9.30598 23.4965 9.30598C23.9875 9.31632 24.4713 9.42314 24.9214 9.62027L25.4545 7.98624C25.4545 7.98624 24.9679 7.60358 23.5403 7.60358C21.551 7.60358 20.1727 8.75157 20.1727 10.3675C20.1727 11.2797 20.8157 11.9816 21.6787 12.4821C22.3716 12.8811 22.62 13.164 22.62 13.5811C22.62 13.9982 22.2735 14.3628 21.6289 14.3628C20.9783 14.3355 20.3415 14.1653 19.763 13.864L19.2 15.4963C19.2 15.4963 20.0364 16.0634 21.4447 16.0634C23.4916 16.0634 24.9611 15.0478 24.9611 13.2179C24.9503 12.2349 24.2075 11.5367 23.3171 11.0205L23.3191 11.0142ZM31.4787 7.58526C30.4711 7.58526 29.679 8.0684 29.0691 8.80036L29.036 8.78367L29.911 4.17356H27.6267L25.4144 15.9074H27.6933L28.4451 11.8952C28.7455 10.3767 29.5171 9.44871 30.2438 9.44871C30.7546 9.44871 30.9524 9.79819 30.9524 10.2978C30.9524 10.6388 30.9183 10.9792 30.8535 11.3138L29.9938 15.9058H32.2764L33.168 11.1615C33.267 10.6663 33.3224 10.1658 33.3339 9.66162C33.3393 8.3631 32.6612 7.58145 31.4776 7.58145L31.4787 7.58526ZM38.4908 7.58526C35.75 7.58526 33.9352 10.082 33.9352 12.8624C33.9352 14.6437 35.0241 16.0743 37.072 16.0743C39.7635 16.0743 41.5784 13.6444 41.5784 10.7971C41.5766 9.14947 40.6204 7.58526 38.491 7.58526H38.4908ZM37.3674 14.3096C36.5918 14.3096 36.2619 13.6446 36.2619 12.8124C36.2619 11.4975 36.9382 9.35023 38.176 9.35023C38.9847 9.35023 39.2484 10.0485 39.2484 10.7322C39.2502 12.1457 38.5739 14.3096 37.3674 14.3096ZM47.4053 7.58526C45.8675 7.58526 44.9957 8.95215 44.9957 8.95215H44.9626L45.0957 7.72073H43.0758C42.9822 8.55734 42.8006 9.81614 42.6243 10.7639L41.0397 19.1689H43.3186L43.9445 15.7736H43.9949C43.9949 15.7736 44.4643 16.0772 45.3331 16.0772C48.0095 16.0772 49.7596 13.3133 49.7596 10.5178C49.7524 8.9672 49.0761 7.58526 47.4087 7.58526H47.4053ZM45.2261 14.343C44.8816 14.3494 44.5462 14.2314 44.2803 14.0104L44.6598 11.8631C44.9233 10.4311 45.6675 9.48371 46.4596 9.48371C47.1524 9.48371 47.3632 10.1319 47.3632 10.7485C47.3722 12.2291 46.4972 14.343 45.2261 14.343ZM53.0017 4.28999C52.831 4.28939 52.6619 4.32269 52.504 4.38799C52.3461 4.45329 52.2025 4.54931 52.0814 4.67056C51.9603 4.79181 51.8641 4.93593 51.7983 5.09467C51.7324 5.25342 51.6982 5.42369 51.6976 5.59576V5.62188C51.6976 6.30379 52.1268 6.76987 52.77 6.76987H52.8031C52.9792 6.77708 53.155 6.74769 53.3194 6.68352C53.4838 6.61936 53.6333 6.52179 53.7587 6.39688C53.8841 6.27197 53.9827 6.12239 54.0484 5.95743C54.1141 5.79247 54.1454 5.61566 54.1404 5.43798C54.1484 5.28509 54.1245 5.13221 54.0701 4.98926C54.0157 4.84631 53.9321 4.71649 53.8248 4.60823C53.7174 4.49997 53.5886 4.41569 53.4469 4.36087C53.3051 4.30604 53.1535 4.28189 53.0018 4.28999H53.0017ZM49.8162 15.9087H52.0933L53.6463 7.76934H51.3512L49.8162 15.9087ZM59.4401 7.7512H57.8543L57.937 7.36854C58.0697 6.58634 58.532 5.8863 59.2927 5.8863C59.5391 5.88703 59.7841 5.92656 60.0186 6.00328L60.4704 4.2053C60.4704 4.2053 60.0668 4.00181 59.2248 4.00181C58.4155 3.97823 57.6248 4.24846 56.996 4.7617C56.2204 5.42728 55.8574 6.39392 55.6752 7.35874L55.609 7.74141H54.555L54.2201 9.48226H55.2741L54.0693 15.9072H56.3483L57.553 9.48226H59.1209L59.4396 7.75102L59.4401 7.7512ZM62.8572 13.3606H62.8243C62.7806 12.724 62.2626 7.76752 62.2626 7.76752H59.8697L61.2384 15.2387C61.2744 15.3693 61.2564 15.5071 61.1888 15.6214C60.8924 16.1757 60.4677 16.6498 59.9508 17.0033C59.5559 17.2821 59.1226 17.5008 58.6647 17.6526L59.2907 19.6004C60.1253 19.3773 60.8915 18.9493 61.521 18.3526C62.5624 17.3697 63.5175 15.8572 64.5086 13.7969L67.3001 7.76861H64.9151C64.9151 7.76861 63.4977 11.3885 62.8592 13.3617L62.8572 13.3606Z" fill="#FDFDFD"/>
<path d="M14.7115 3.90156C14.7047 3.86331 14.6846 3.82829 14.6543 3.80209C14.624 3.77589 14.5852 3.76001 14.5442 3.75698L13.0102 3.64851L12 2.50037C11.8882 2.395 11.6701 2.42661 11.584 2.44976L10.8899 2.70353C10.5488 1.77961 9.94768 0.929797 8.89573 0.929797L8.80227 0.938434C8.49438 0.563617 8.12785 0.400391 7.80713 0.400391C5.34404 0.400391 4.16747 3.30306 3.79727 4.77832L2.06944 5.2775C1.53559 5.4364 1.51873 5.45195 1.4555 5.92522C1.39832 6.29123 0 16.4769 0 16.4769L10.8952 18.4004L16.8 17.197C16.8 17.197 14.7254 3.9931 14.7115 3.90156ZM10.2875 2.8804L9.36673 3.14933V2.96106C9.37736 2.48537 9.30314 2.01107 9.14736 1.55852C9.69056 1.62364 10.0483 2.20797 10.2875 2.8804ZM8.47056 1.67304C8.6557 2.17565 8.74051 2.70623 8.72072 3.23794V3.33899L6.81475 3.89292C7.18165 2.55947 7.86908 1.91589 8.47056 1.67304ZM7.73859 1.0191C7.85197 1.02186 7.96175 1.05718 8.05326 1.12031C7.26302 1.47026 6.41743 2.35255 6.05841 4.11418L4.55306 4.54807C4.97494 3.20875 5.96788 1.0191 7.73859 1.0191Z" fill="#95BF46"/>
<path d="M14.5064 2.90729L12.9466 3.50038L12 2.50038C11.9568 2.46118 11.9023 2.43603 11.844 2.42839L10.8 18.4004L16.8 17.1275L14.6797 3.06316C14.6734 3.02163 14.6527 2.98348 14.6212 2.95508C14.5897 2.92667 14.5492 2.90992 14.5064 2.90729Z" fill="#5F8E3E"/>
<path d="M8.39999 6.68293L7.7085 8.82849C7.28815 8.61394 6.82761 8.49863 6.35964 8.49075C5.27014 8.49075 5.21615 9.204 5.21615 9.3834C5.21615 10.3625 7.66634 10.738 7.66634 13.0325C7.66634 14.8386 6.56814 16.0004 5.08638 16.0004C3.30852 16.0004 2.39999 14.8479 2.39999 14.8479L2.87551 13.2089C2.87551 13.2089 3.80912 14.0451 4.59641 14.0451C4.78063 14.0542 4.96077 13.9867 5.09728 13.8574C5.23379 13.7282 5.31551 13.5477 5.32449 13.3557V13.3139C5.32449 12.035 3.31444 11.9787 3.31444 9.87912C3.31444 8.11088 4.53022 6.40039 6.98791 6.40039C7.93023 6.40039 8.39703 6.68311 8.39703 6.68311L8.39999 6.68293Z" fill="white"/>
</svg>
