<svg width="121" height="25" viewBox="0 0 121 25" fill="none" xmlns="http://www.w3.org/2000/svg">
<g clip-path="url(#clip0)">
<path d="M25.6342 17.4119C26.1754 17.6936 27.1494 18.083 28.0804 18.0615C28.9246 18.0615 29.379 17.6063 29.379 17.044C29.379 16.5026 29.0544 16.1347 28.1449 15.6149C27.0197 14.9653 26.1754 14.0555 26.1754 12.8645C26.1754 10.7636 27.9722 9.26936 30.5911 9.26936C31.7385 9.26936 32.6258 9.48587 33.1018 9.76764L32.4094 11.89C31.998 11.695 31.3271 11.4784 30.548 11.4784C29.7038 11.4784 29.1626 11.8685 29.1626 12.4744C29.1626 12.9505 29.5525 13.2975 30.3101 13.7091C31.479 14.3803 32.453 15.2901 32.453 16.5678C32.453 18.9498 30.5265 20.2928 27.8424 20.2713C26.6083 20.2498 25.4608 19.9243 24.8988 19.5349L25.6342 17.4119Z" fill="white"/>
<path d="M33.0596 20.2123L35.9601 5.04858H38.9473L37.7999 10.9269L37.8429 10.8883C38.6436 9.9354 39.6827 9.2775 41.0029 9.2775C42.5618 9.2775 43.4491 10.2805 43.4491 11.9697C43.4491 12.4895 43.3624 13.3298 43.2326 13.9801L42.0637 20.213H39.0765L40.2017 14.1668C40.2878 13.7553 40.3321 13.2228 40.3321 12.8118C40.3321 12.1622 40.0726 11.6905 39.4011 11.6905C38.4486 11.6905 37.4309 12.9632 37.0417 14.9342L36.0456 20.213H33.0596V20.2123Z" fill="white"/>
<path d="M54.2517 13.4275C54.2517 17.1309 51.8702 20.2929 48.3418 20.2929C45.6577 20.2929 44.2292 18.4301 44.2292 16.1128C44.2292 12.4961 46.6108 9.2473 50.2037 9.2473C52.9967 9.24796 54.2517 11.2835 54.2517 13.4275ZM47.2817 16.0482C47.2817 17.1309 47.7145 17.997 48.7323 17.997C50.312 17.997 51.1999 15.1814 51.1999 13.3407C51.1999 12.453 50.8531 11.5438 49.793 11.5438C48.169 11.5432 47.2817 14.3367 47.2817 16.0482Z" fill="white"/>
<path d="M53.5379 24.4239L55.6157 13.4954C55.8542 12.2607 56.0916 10.6639 56.222 9.54001H58.863L58.6896 11.2249H58.7327C59.5333 10.1017 60.7029 9.34758 61.8927 9.34758C64.0787 9.34758 64.9667 11.0945 64.9667 13.1086C64.9667 16.7474 62.6724 20.3311 59.1656 20.3311C58.4295 20.3311 57.7586 20.2115 57.4118 19.9309H57.3466L56.5239 24.4239H53.5379ZM57.8029 17.6066C58.1276 17.8662 58.4953 18.0397 59.0371 18.0397C60.7041 18.0397 61.8516 15.2892 61.8516 13.3619C61.8516 12.5609 61.5699 11.7163 60.6611 11.7163C59.6219 11.7163 58.6478 12.9509 58.3017 14.813L57.8029 17.6066Z" fill="white"/>
<path d="M65.0547 20.2126L67.0678 9.54191H70.077L68.0417 20.2126H65.0547ZM68.9301 8.41862C68.0858 8.41862 67.5229 7.69619 67.5229 6.80849C67.5229 5.83405 68.2804 5.0179 69.2333 5.0179C70.1421 5.0179 70.7267 5.73337 70.7267 6.59954C70.705 7.70382 69.9041 8.41928 68.9735 8.41928L68.9301 8.41862Z" fill="white"/>
<path d="M70.6393 20.2123L72.2195 11.788H70.8339L71.2673 9.54151H72.6522L72.739 9.0046C72.9777 7.74842 73.4532 6.47256 74.4705 5.60639C75.2715 4.9137 76.3322 4.60028 77.3936 4.60028C78.1294 4.60028 78.6706 4.70412 79.0165 4.85545L78.4326 7.19184C78.1735 7.10572 77.8703 7.03927 77.4804 7.03927C76.4841 7.03927 75.8778 7.9871 75.7048 9.00519L75.597 9.54151H77.6744L77.2634 11.788H75.207L73.6268 20.2123H70.6393Z" fill="white"/>
<path d="M81.3774 9.54137L81.8528 14.318C81.9837 15.3792 82.0692 16.2808 82.1126 16.8424H82.1553C82.394 16.2808 82.6104 15.4438 83.0437 14.2965L84.862 9.54203H87.9784L84.3208 17.3541C83.022 20.0393 81.766 21.9964 80.4021 23.2742C79.3414 24.2701 78.086 24.7615 77.4797 24.8913L76.657 22.3535C77.1549 22.1801 77.7822 21.9185 78.3458 21.5076C79.0376 21.0315 79.6229 20.3806 79.9688 19.7095C80.0549 19.5581 80.0773 19.4555 80.0339 19.239L78.2373 9.54269L81.3774 9.54137Z" fill="white"/>
<path d="M14.6764 2.84207C14.6745 2.8427 14.4042 2.92628 13.9473 3.06812C13.8713 2.82055 13.7587 2.51599 13.5985 2.21017C13.0821 1.22433 12.3252 0.701967 11.4113 0.700697C11.41 0.700697 11.4094 0.700697 11.4081 0.700697C11.3448 0.700697 11.2815 0.706395 11.2183 0.712092C11.1917 0.679803 11.1645 0.647509 11.1353 0.617117C10.7373 0.190995 10.2259 -0.0166825 9.61448 0.00104623C8.43355 0.0352373 7.25761 0.888118 6.30448 2.40329C5.63299 3.46955 5.12351 4.80933 4.97857 5.84582C3.62292 6.26561 2.67421 6.56003 2.65397 6.56637C1.9698 6.78099 1.94829 6.80257 1.85842 7.44776C1.7907 7.93592 0.000244141 21.789 0.000244141 21.789L14.8567 24.3597V2.81168C14.7834 2.81674 14.7175 2.83004 14.6764 2.84207ZM11.2461 3.90516C10.46 4.14893 9.60186 4.41486 8.74046 4.68143C8.98292 3.75384 9.44173 2.83004 10.0056 2.22473C10.2151 1.99995 10.5088 1.74859 10.8562 1.60486C11.1835 2.28615 11.2537 3.25236 11.2461 3.90516ZM9.6373 0.787441C9.91449 0.781743 10.1481 0.842526 10.3474 0.973592C10.0284 1.13948 9.71957 1.37755 9.43035 1.68781C8.68035 2.49256 8.10567 3.74243 7.87662 4.94799C7.16141 5.16959 6.46208 5.38614 5.81906 5.58559C6.22474 3.68799 7.81454 0.839993 9.6373 0.787441ZM7.33988 11.5982C7.41965 12.8626 10.7448 13.1386 10.9315 16.1006C11.0784 18.4307 9.69616 20.0243 7.70446 20.1503C5.31401 20.3011 3.99822 18.8903 3.99822 18.8903L4.50454 16.7344C4.50454 16.7344 5.82918 17.7341 6.88929 17.667C7.58168 17.6234 7.82914 17.0599 7.80442 16.661C7.70065 15.0116 4.99313 15.1084 4.82162 12.3985C4.67795 10.1178 6.17474 7.80671 9.47842 7.59776C10.7512 7.51737 11.403 7.84217 11.403 7.84217L10.6474 10.6693C10.6474 10.6693 9.80499 10.2856 8.80569 10.3483C7.34054 10.442 7.32469 11.3664 7.33988 11.5982ZM12.0309 3.66139C12.0221 3.06305 11.9505 2.23106 11.6721 1.51178C12.5682 1.68147 13.0093 2.69581 13.1954 3.30048C12.8505 3.40812 12.4575 3.5297 12.0309 3.66139Z" fill="white"/>
<path d="M15.3479 24.3008L21.511 22.7679C21.511 22.7679 18.8573 4.81885 18.8409 4.69538C18.8238 4.57255 18.7162 4.50417 18.6276 4.49657C18.5389 4.48897 16.8036 4.46301 16.8036 4.46301C16.8036 4.46301 15.7454 3.43538 15.3479 3.04597V24.3008Z" fill="white"/>
</g>
<defs>
<clipPath id="clip0">
<path d="M0.000244141 0H121V25H0.000244141V0Z" fill="white"/>
</clipPath>
</defs>
</svg>
