<svg width="167" height="45" viewBox="0 0 167 45" fill="none" xmlns="http://www.w3.org/2000/svg">
<path fill-rule="evenodd" clip-rule="evenodd" d="M62.5894 19.9647C63.0661 19.488 63.3047 18.849 63.3047 18.0482C63.3047 17.2477 63.0661 16.6088 62.5894 16.1318C62.1122 15.6551 61.4052 15.4163 60.4685 15.4163H55.5625V20.6801H60.4685C61.4052 20.6801 62.1122 20.4419 62.5894 19.9647ZM67.0355 30.6969H63.4071L59.7275 23.542H55.5625V30.6969H52.4704V12.5546H60.4431C62.3849 12.5546 63.867 13.0571 64.8892 14.062C65.9112 15.0673 66.4223 16.3961 66.4223 18.0482C66.4223 19.2919 66.1241 20.3608 65.5279 21.2552C64.9315 22.1494 64.046 22.7843 62.8705 23.1587L67.0355 30.6969Z" fill="#424242"/>
<path fill-rule="evenodd" clip-rule="evenodd" d="M73.9876 19.6063C73.0334 19.6063 72.2412 19.8874 71.6111 20.4497C70.9808 21.0117 70.5889 21.7614 70.4358 22.6983H77.4882C77.3517 21.7614 76.9771 21.0117 76.3639 20.4497C75.7506 19.8874 74.9584 19.6063 73.9876 19.6063ZM80.4779 24.9468H70.3847C70.5036 26.0033 70.8869 26.842 71.5347 27.4639C72.1818 28.086 73.0334 28.3964 74.0897 28.3964C74.788 28.3964 75.4185 28.2264 75.9808 27.8853C76.5429 27.5448 76.9428 27.0851 77.1816 26.5057H80.2481C79.8392 27.8514 79.0766 28.9376 77.961 29.7635C76.845 30.5901 75.5291 31.0028 74.0131 31.0028C72.0367 31.0028 70.4396 30.3473 69.222 29.0353C68.0038 27.7238 67.395 26.0627 67.395 24.0524C67.395 22.0939 68.0082 20.4497 69.2349 19.1209C70.4613 17.7921 72.0456 17.1277 73.9876 17.1277C75.9296 17.1277 77.5012 17.7792 78.702 19.0825C79.903 20.3856 80.5034 22.0255 80.5034 24.0014L80.4779 24.9468Z" fill="#424242"/>
<path fill-rule="evenodd" clip-rule="evenodd" d="M104.462 11.5317V18.8654C105.263 17.7072 106.548 17.1279 108.32 17.1279C109.888 17.1279 111.101 17.605 111.962 18.5588C112.822 19.513 113.252 20.782 113.252 22.3662V30.6964H110.211V22.7495C110.211 21.8128 109.994 21.0757 109.56 20.5392C109.125 20.0026 108.465 19.7343 107.579 19.7343C106.608 19.7343 105.846 20.0241 105.292 20.603C104.739 21.1823 104.462 21.9918 104.462 23.0306V30.6964H101.421V11.5317H104.462Z" fill="#424242"/>
<path fill-rule="evenodd" clip-rule="evenodd" d="M124.33 24.4828L120.808 25.0274C119.153 25.281 118.326 25.9062 118.326 26.9027C118.326 28.0519 119.109 28.6266 120.676 28.6266C121.852 28.6266 122.755 28.3128 123.385 27.6861C124.015 27.0592 124.33 26.2711 124.33 25.3216V24.4828ZM120.063 31.0028C118.496 31.0028 117.329 30.6368 116.562 29.904C115.796 29.172 115.413 28.2007 115.413 26.9909C115.415 24.689 117.113 23.2949 120.506 22.8099L124.33 22.2639V22.0594C124.33 20.4412 123.385 19.632 121.494 19.632C119.842 19.632 118.904 20.2877 118.683 21.5995H115.719C115.855 20.305 116.396 19.2358 117.342 18.3924C118.287 17.5492 119.697 17.1277 121.571 17.1277C123.462 17.1277 124.888 17.5621 125.851 18.431C126.813 19.2997 127.294 20.5179 127.294 22.0849V28.1919C127.294 29.2653 127.423 30.1 127.678 30.6962H124.791C124.773 30.6962 124.752 30.6322 124.727 30.5046C124.701 30.3767 124.675 30.1683 124.65 29.8785C124.624 29.5889 124.612 29.2823 124.612 28.9586C123.708 30.3218 122.193 31.0028 120.063 31.0028Z" fill="#424242"/>
<path fill-rule="evenodd" clip-rule="evenodd" d="M137.376 17.3306V20.167C137.138 20.1331 136.908 20.1159 136.687 20.1159C134.404 20.1159 133.262 21.3423 133.262 23.7955V30.6947H130.221V17.4328H133.032V19.2727C133.782 17.9609 135.085 17.3052 136.942 17.3052L137.376 17.3306Z" fill="#424242"/>
<path fill-rule="evenodd" clip-rule="evenodd" d="M148.946 23.8224C148.946 22.6469 148.605 21.6848 147.924 20.9349C147.242 20.1854 146.348 19.8105 145.241 19.8105C144.15 19.8105 143.264 20.1854 142.583 20.9349C141.902 21.6848 141.561 22.6469 141.561 23.8224C141.561 24.9811 141.902 25.9395 142.583 26.6969C143.264 27.4553 144.15 27.8343 145.241 27.8343C146.348 27.8343 147.242 27.4553 147.924 26.6969C148.605 25.9395 148.946 24.9811 148.946 23.8224ZM149.048 19.3253V17.4343H151.859V30.1339C151.859 31.9395 151.301 33.4174 150.185 34.5672C149.069 35.7172 147.515 36.2921 145.522 36.2921C143.699 36.2921 142.272 35.8234 141.242 34.8867C140.211 33.9498 139.61 32.8764 139.44 31.6672H142.481C142.856 33.0127 143.887 33.6859 145.573 33.6859C146.595 33.6859 147.391 33.4001 147.962 32.8297C148.533 32.259 148.818 31.4966 148.818 30.5427V28.473C147.932 29.8362 146.535 30.5172 144.627 30.5172C142.788 30.5172 141.31 29.8743 140.194 28.588C139.078 27.302 138.52 25.7133 138.52 23.8224C138.52 21.9316 139.078 20.3433 140.194 19.0568C141.31 17.7708 142.788 17.1277 144.627 17.1277C146.655 17.1277 148.128 17.8603 149.048 19.3253Z" fill="#424242"/>
<path fill-rule="evenodd" clip-rule="evenodd" d="M160.484 19.6063C159.53 19.6063 158.738 19.8874 158.108 20.4497C157.477 21.0117 157.086 21.7614 156.932 22.6983H163.985C163.848 21.7614 163.474 21.0117 162.86 20.4497C162.247 19.8874 161.455 19.6063 160.484 19.6063ZM166.974 24.9468H156.881C157 26.0033 157.384 26.842 158.031 27.4639C158.678 28.086 159.53 28.3964 160.586 28.3964C161.285 28.3964 161.915 28.2264 162.477 27.8853C163.039 27.5448 163.439 27.0851 163.678 26.5057H166.745C166.336 27.8514 165.573 28.9376 164.458 29.7635C163.342 30.5901 162.026 31.0028 160.51 31.0028C158.533 31.0028 156.936 30.3473 155.719 29.0353C154.5 27.7238 153.892 26.0627 153.892 24.0524C153.892 22.0939 154.505 20.4497 155.731 19.1209C156.958 17.7921 158.542 17.1277 160.484 17.1277C162.426 17.1277 163.998 17.7792 165.199 19.0825C166.4 20.3856 167 22.0255 167 24.0014L166.974 24.9468Z" fill="#424242"/>
<path fill-rule="evenodd" clip-rule="evenodd" d="M94.8997 27.1423C93.9304 27.8627 92.7513 28.2228 91.3618 28.2228C89.5434 28.2228 88.1154 27.6311 87.0777 26.4476C86.0397 25.2638 85.521 23.6775 85.521 21.6874C85.521 19.6978 86.0397 18.1153 87.0777 16.9402C88.1154 15.7655 89.5434 15.1778 91.3618 15.1778C92.7513 15.1778 93.9304 15.5379 94.8997 16.2583C95.7048 16.857 96.2822 17.6452 96.6318 18.6228L99.4913 17.0819C98.9691 15.9043 98.1977 14.9095 97.1768 14.097C95.5816 12.8278 93.6429 12.1929 91.3618 12.1929C88.6859 12.1929 86.4945 13.0768 84.7877 14.8432C83.0807 16.6102 82.2276 18.8917 82.2276 21.6874C82.2276 24.5009 83.0807 26.7908 84.7877 28.5574C86.4945 30.3243 88.6859 31.2077 91.3618 31.2077C93.6429 31.2077 95.5816 30.5732 97.1768 29.3035C98.0954 28.5728 98.8143 27.6896 99.329 26.663L96.4898 25.1331C96.1342 25.948 95.6047 26.6181 94.8997 27.1423Z" fill="#424242"/>
<path fill-rule="evenodd" clip-rule="evenodd" d="M21.9131 10.797C18.7905 12.4267 15.6768 14.0522 12.5323 15.6933C13.5097 16.2472 14.4438 16.7764 15.3771 17.3052C18.3439 15.5472 21.2927 13.7997 24.2719 12.0342C23.4702 11.6136 22.6999 11.2095 21.9131 10.797ZM31.247 15.6858C29.8548 14.9567 28.4904 14.2422 27.1298 13.5298C24.1279 15.309 21.1392 17.0801 18.1264 18.8656C19.412 19.5945 20.6606 20.3023 21.9043 21.0071C25.0248 19.2297 28.1255 17.4637 31.247 15.6858ZM21.0413 22.4747C19.7921 21.7667 18.5463 21.0606 17.2617 20.3324V24.1998C16.3303 23.6723 15.43 23.162 14.5268 22.6505V18.781C13.5617 18.2334 12.5993 17.6878 11.6337 17.1401V28.3368C14.7776 30.1036 17.8989 31.8576 21.0413 33.6234V22.4747ZM32.1839 28.2972V17.1112C29.0133 18.9168 25.8802 20.7011 22.7629 22.4766V33.6977C25.928 31.8833 29.0683 30.0832 32.1839 28.2972ZM9.93136 15.1309C13.9112 13.0536 17.9071 10.9682 21.914 8.87685C25.8958 10.9623 29.8767 13.0471 33.8829 15.1452V29.2846C29.9435 31.5432 25.9699 33.8211 21.9847 36.1058C17.9737 33.8516 13.9637 31.5981 9.93136 29.3322V15.1309Z" fill="#53BAD3"/>
<path fill-rule="evenodd" clip-rule="evenodd" d="M33.7942 3.9004C33.4151 2.9875 33.051 2.11125 32.6768 1.20993C33.261 0.966286 33.838 0.725585 34.4405 0.474354C35.3913 2.76028 36.3357 5.03083 37.2876 7.31886C34.8844 7.52039 32.51 7.71961 30.1045 7.92135C30.0522 7.29169 30.0004 6.66878 29.9465 6.01806C30.9868 5.92961 32.0056 5.84327 33.0243 5.75672C30.4515 3.97158 27.6153 2.86325 24.5199 2.48462C18.8831 1.79516 13.7873 3.17113 9.357 6.73995C0.625635 13.7736 -0.493214 26.4006 6.42099 34.8883C13.581 43.678 27.0606 44.932 35.7175 36.6627C36.1538 37.1165 36.5901 37.5705 37.0267 38.0246C29.9368 44.9973 17.9706 46.531 8.92024 39.8731C-0.290208 33.0973 -2.74228 20.3845 3.32494 10.7133C6.55472 5.56446 11.1754 2.26055 17.1144 0.935329C23.0458 -0.388211 28.6023 0.674412 33.7942 3.9004Z" fill="#53BAD3"/>
</svg>
