<svg width="156" height="37" viewBox="0 0 156 37" fill="none" xmlns="http://www.w3.org/2000/svg">
<path d="M1.08767 16.7892L24.9563 0.980739C25.9964 0.382722 27.2704 0.382722 28.3104 0.980739L52.1791 16.7892C53.1151 17.2572 53.5311 18.3752 53.0631 19.3373C52.8811 19.7273 52.5691 20.0393 52.1791 20.2213L48.981 22.3273C41.1548 9.97699 24.8263 6.31089 12.476 14.1111C9.1739 16.2172 6.36582 18.9992 4.25976 22.3273L1.03567 20.2213C0.0996431 19.7273 -0.264367 18.5832 0.203646 17.6472C0.411652 17.2832 0.723661 16.9712 1.08767 16.7892ZM26.5944 16.6072C19.7562 16.6332 13.386 20.1433 9.74591 25.9414L15.2321 29.5815C19.0022 23.3154 27.1404 21.3133 33.3806 25.0834C35.2266 26.2014 36.7607 27.7355 37.8787 29.5815L43.3648 25.9414C39.7767 20.1173 33.4326 16.5812 26.5944 16.6072ZM26.5944 29.8155C24.1763 29.8415 21.9663 31.1416 20.7702 33.2476L24.4623 35.6657C25.0603 36.1857 25.8144 36.4457 26.5944 36.4457C27.3744 36.4457 28.1544 36.1597 28.7264 35.6657L32.4185 33.2476C31.2485 31.1156 29.0124 29.8155 26.5944 29.8155Z" fill="url(#paint0_linear)"/>
<path d="M68.0396 18.4018L74.0197 26.9821H69.8076L65.2835 20.3259V26.9821H61.8514V9.97758H65.2835V16.7638L69.5736 9.97758H73.5257L68.0396 18.4018ZM79.9219 10.0296H76.4898V27.0341H85.252V23.602H79.8439L79.9219 10.0296ZM95.3923 9.40556L102.543 27.0081H98.6944L98.0184 25.162H92.3762L91.7002 27.0081H87.8261L94.9763 9.40556H95.3923ZM96.7704 21.9899L95.2363 17.5958L93.6503 21.9899H96.7704ZM107.353 19.4678L103.843 10.0296H99.9945L107.145 27.6321H107.483L114.633 10.0296H110.759L107.353 19.4678ZM117.259 27.0341H120.691V10.0296H117.259V27.0341ZM134.263 10.0296L130.805 15.9057L127.347 10.0296H123.213L129.115 19.3638V27.0341H132.495V19.3638L138.45 10.0296H134.263ZM156 18.2198C156 23.0819 152.048 27.0341 147.186 27.0341C142.324 27.0341 138.372 23.0819 138.372 18.2198C138.372 13.3577 142.324 9.40556 147.186 9.40556C152.074 9.43156 156 13.3577 156 18.2198ZM152.698 18.2198C152.698 15.1777 150.228 12.7337 147.212 12.7337C144.17 12.7337 141.726 15.2037 141.726 18.2198C141.726 21.2359 144.196 23.706 147.212 23.706C150.228 23.706 152.698 21.2619 152.698 18.2458C152.698 18.2458 152.698 18.2458 152.698 18.2198Z" fill="#171A1D"/>
<defs>
<linearGradient id="paint0_linear" x1="26.6162" y1="36.4365" x2="26.6162" y2="0.536528" gradientUnits="userSpaceOnUse">
<stop stop-color="#EFC119"/>
<stop offset="0.3314" stop-color="#92C84E"/>
<stop offset="0.4859" stop-color="#71BF5B"/>
<stop offset="0.7506" stop-color="#15B158"/>
<stop offset="0.903" stop-color="#23AC69"/>
<stop offset="1" stop-color="#23AC69"/>
</linearGradient>
</defs>
</svg>
