<svg width="147" height="35" viewBox="0 0 147 35" fill="none" xmlns="http://www.w3.org/2000/svg">
<path fill-rule="evenodd" clip-rule="evenodd" d="M28.4255 27.7694C28.4255 27.7694 27.5805 29.6963 25.9691 30.0466C28.3567 31.7788 28.229 33.7933 28.1602 34.6886C28.1602 33.7544 27.6493 31.0392 22.029 30.212C15.2101 29.1707 14.709 20.8015 14.709 20.3831C14.709 20.3831 15.0038 22.4073 16.5169 24.4704C18.3838 21.8234 20.791 21.3173 20.791 21.3173C22.1666 21.0059 23.1885 21.2492 23.3751 21.3173C23.5127 21.3173 23.6208 21.4146 23.6208 21.5509C23.6208 21.6968 23.5225 21.8039 23.3751 21.8039C23.326 21.8039 23.2769 21.7844 23.2474 21.765C23.2474 21.765 22.3631 21.4341 20.9188 21.7358C18.7375 22.1932 17.2342 23.7016 16.5562 24.5288C17.4405 25.716 18.7178 26.913 20.5847 27.7402C21.2725 26.3096 22.7758 23.7113 25.1437 22.4851C25.1437 22.4851 25.1634 22.4851 25.183 22.4851C25.2322 22.4267 25.301 22.3878 25.3796 22.3878C25.5368 22.3878 25.6743 22.5338 25.6743 22.7089C25.6743 22.8452 25.5761 22.9522 25.4778 23.0009C24.8588 23.5264 22.6284 24.0714 20.6436 27.7694C21.1054 27.964 21.5967 28.1587 22.1175 28.3046C23.0018 28.5479 23.7485 28.8301 24.3773 29.1221C25.0357 29.3362 27.1482 29.8422 28.4353 27.7597L28.4255 27.7694ZM13.8837 24.7331C12.0463 20.3344 6.74052 18.2616 6.74052 18.2616C-0.137354 15.9162 0.000203487 8.47154 0.000203487 8.47154C0.000203487 4.75406 2.40746 1.33825 4.22518 0.472135C4.22518 0.472135 3.16403 1.50369 2.16182 4.07284C1.08101 6.93394 1.47403 12.5588 5.60076 14.2132C9.03969 15.527 11.1718 18.3978 11.1718 18.3978C11.1718 18.3978 12.233 19.6629 12.9404 21.4146C14.0802 24.1589 14.3651 25.8912 13.8837 24.7234V24.7331ZM19.6807 9.8729C19.9559 10.7682 19.6807 11.5273 19.6807 11.5273C21.5869 12.1696 22.9232 13.6682 22.9232 13.6682C22.7267 13.6682 22.6088 13.5904 21.9603 13.3568C21.9603 13.3568 20.8402 12.9676 20.1524 12.987C19.8871 12.987 19.8085 13.0162 19.8085 13.0162C19.5727 13.2303 19.1796 13.5028 18.5705 13.5028C17.2931 13.5028 16.3695 12.8216 16.3695 12.8216L16.5661 12.7632C16.7429 12.6853 17.3914 12.1793 18.0202 11.6635C19.101 10.7682 19.6906 9.8729 19.6906 9.8729H19.6807ZM32.7684 15.9357C32.8666 16.2277 32.9059 16.8505 32.7684 18.4367C32.6504 19.6045 32.3753 20.2858 31.098 24.665C31.098 24.7331 31.0587 24.8012 31.0194 24.8402C31.0194 24.8402 31.0194 24.8402 31.0194 24.8596C30.9506 24.9277 30.7246 25.1516 30.0074 25.4727C29.4866 25.7063 27.6493 26.3486 26.0477 26.2513C23.8271 26.0955 23.3948 26.407 23.3948 26.407C23.3948 26.407 23.5225 24.5579 26.2049 25.2586C27.1088 25.4922 28.5925 25.5506 29.4473 25.3754C30.8819 25.1029 31.0391 24.772 31.0587 24.7331C31.2749 23.8865 32.336 19.624 31.2257 18.9136C30.9605 18.7384 30.7934 18.5827 30.4987 18.719C30.4987 18.719 29.6144 18.8941 28.9855 17.483C28.6318 16.8408 29.2115 16.7045 29.2115 16.7045C29.2115 16.7045 29.7716 16.2569 30.4888 16.7045C30.4888 16.7045 30.9113 15.7022 32.3557 15.7605C32.3557 15.7605 32.5325 15.7605 32.6504 15.8092C31.7858 13.4736 23.8369 10.4179 23.8369 10.4179C20.8402 9.26954 20.0345 7.36214 17.9809 5.55205C16.4481 4.20909 14.1293 3.41109 13.0485 3.11914C16.1239 3.95606 18.2364 4.8903 18.2364 4.8903C20.4471 5.69803 22.5203 9.07491 24.5051 10.0481C25.8807 10.7293 32.1297 13.4055 32.7585 15.9357V15.9552L32.7684 15.9357ZM12.459 2.92451C12.6555 2.96343 12.852 3.02182 13.0485 3.07048C12.6751 2.97317 12.459 2.91478 12.459 2.91478V2.92451ZM9.21655 14.2716C4.47082 13.1427 4.14658 9.57122 4.14658 9.57122C5.97413 12.0041 6.93703 12.0528 7.95888 12.1793C6.97633 11.3716 6.20994 10.0383 7.07459 8.04335C7.66412 6.68092 8.50911 5.41581 8.37156 4.26747C8.21435 3.00236 7.389 2.09732 7.72307 2.51578C7.99819 2.83692 9.1576 4.36479 9.5408 5.45473C10.0026 6.76851 9.87486 7.43026 9.38359 9.01652C8.6958 11.3521 10.3661 13.3179 10.3661 13.3179C12.3705 15.128 12.7636 17.9599 12.7636 17.9599C12.4688 17.084 11.6828 14.9431 9.22638 14.2619L9.21655 14.2716ZM10.1991 3.40136C8.07679 0.316428 6.32785 0.00501582 5.22739 0.0342107C5.22739 0.0342107 10.0026 -0.598346 11.5649 3.57653C12.2821 5.58125 11.0343 8.16986 11.0343 8.16986C11.0343 8.16986 11.7221 5.63964 10.1795 3.40136H10.1991ZM28.1602 34.6789C28.1405 34.8151 28.1307 34.9221 28.1307 35C28.1307 35 28.1602 34.8832 28.1602 34.6789ZM7.50691 21.2784C8.58772 20.7918 13.5987 24.3633 14.5518 30.65C14.316 29.3459 13.471 26.5237 10.5921 25.064C6.89773 23.1955 7.17284 21.7066 7.17284 21.7066C7.17284 21.7066 7.21214 21.4146 7.50691 21.2784V21.2784ZM14.6402 31.3409C14.6402 31.3409 14.6402 31.1852 14.6009 30.9127C14.6206 31.0587 14.6402 31.2047 14.6501 31.3409H14.6402ZM117.268 21.473C117.759 21.473 118.093 21.8234 118.093 22.3099C118.093 22.524 118.015 22.7187 117.877 22.8744C117.72 23.069 117.504 23.1663 117.258 23.1663H112.11C111.874 23.1663 111.677 23.069 111.52 22.923C111.353 22.7673 111.255 22.5338 111.255 22.3099V12.6756C111.255 12.4323 111.353 12.2085 111.52 12.0431C111.844 11.7316 112.404 11.7511 112.699 12.0917C112.827 12.2572 112.896 12.4518 112.896 12.6756V21.473H117.268V21.473ZM120.805 12.0625C121.12 11.7219 121.67 11.7219 121.984 12.0625C122.132 12.228 122.21 12.4518 122.21 12.6464V22.3002C122.21 22.5143 122.132 22.7284 121.984 22.8841C121.827 23.0593 121.621 23.1566 121.395 23.1566C121.169 23.1566 120.962 23.0593 120.805 22.9036C120.648 22.7381 120.559 22.5143 120.559 22.3002V12.6659C120.559 12.4226 120.658 12.2085 120.795 12.0528L120.805 12.0625ZM133.382 12.4518C134.237 12.9676 134.915 13.678 135.406 14.5733C135.897 15.4491 136.153 16.4418 136.162 17.4928C136.162 18.5633 135.907 19.5364 135.416 20.4123C134.924 21.3173 134.256 22.0277 133.411 22.5532C132.556 23.0787 131.603 23.3318 130.601 23.3318C129.589 23.3318 128.636 23.0787 127.791 22.5532C126.936 22.0277 126.258 21.3173 125.777 20.4123C125.286 19.5364 125.03 18.5438 125.02 17.4928C125.02 16.7142 125.177 15.9357 125.462 15.2253C125.757 14.5149 126.15 13.8921 126.641 13.3763C127.133 12.8508 127.722 12.4323 128.41 12.1112C129.098 11.8192 129.825 11.6635 130.591 11.6635C131.594 11.6635 132.556 11.9165 133.392 12.4421L133.382 12.4518ZM134.099 19.0985C134.296 18.5827 134.413 18.0475 134.413 17.483C134.413 16.724 134.237 16.0428 133.883 15.4005C133.529 14.7582 133.067 14.2716 132.468 13.9018C131.879 13.532 131.259 13.3568 130.582 13.3568C129.894 13.3568 129.265 13.532 128.675 13.8921C128.086 14.2521 127.614 14.7387 127.27 15.381C126.907 16.0233 126.74 16.7045 126.74 17.4733C126.74 18.2324 126.897 18.9136 127.251 19.5462C127.604 20.1982 128.066 20.6848 128.666 21.0546C129.255 21.4146 129.884 21.5995 130.572 21.6093C131.063 21.6093 131.554 21.4925 132.026 21.2784C132.498 21.0546 132.91 20.7626 133.254 20.4025C133.598 20.0425 133.883 19.5948 134.089 19.0888L134.099 19.0985ZM146.774 12.1404C146.921 12.3058 147 12.5102 147 12.7243V22.3002C147 22.5143 146.941 22.7089 146.803 22.8646C146.764 22.9133 146.705 22.962 146.666 23.0009C146.499 23.1177 146.204 23.1566 146.204 23.1566C146.037 23.1566 145.909 23.1177 145.772 23.0398L145.379 22.5824L140.27 15.2837V22.3099C140.27 22.524 140.201 22.7187 140.073 22.8744C139.906 23.069 139.68 23.1663 139.464 23.1663C139.316 23.1663 139.1 23.1177 138.894 22.923C138.717 22.7479 138.629 22.5338 138.629 22.3099V12.734C138.629 12.4615 138.707 12.2474 138.874 12.0528L138.973 11.9944C138.973 11.9944 139.169 11.829 139.434 11.829C139.7 11.829 139.926 11.9263 140.083 12.1501L145.349 19.6824V12.734C145.349 12.5004 145.448 12.2766 145.624 12.1112C145.841 11.9165 146.047 11.8874 146.184 11.8874C146.401 11.8874 146.607 11.9847 146.774 12.1598V12.1404ZM45.3745 21.872C45.63 21.872 45.797 22.0472 45.797 22.3002C45.797 22.3975 45.7675 22.5143 45.6988 22.5922C45.6201 22.6895 45.5022 22.7381 45.3843 22.7381H40.2259C40.0982 22.7381 39.9901 22.6895 39.9115 22.6116C39.8329 22.5143 39.7838 22.417 39.7838 22.3002V12.6659C39.7838 12.5394 39.8329 12.4323 39.9213 12.3447C40.1179 12.1501 40.3733 12.1696 40.5109 12.3447C40.5895 12.4421 40.6288 12.5394 40.6288 12.6367V21.8817H45.404L45.3745 21.872ZM55.9664 12.8021C56.7525 13.2887 57.3617 13.9407 57.8333 14.7679C58.2754 15.5951 58.5014 16.5196 58.5211 17.4928C58.5014 18.4659 58.2754 19.3904 57.8333 20.2176C57.3617 21.0448 56.7525 21.7163 55.9664 22.1932C55.1804 22.6797 54.3157 22.9328 53.3921 22.9328C52.4685 22.9328 51.6039 22.6895 50.8179 22.2029C50.0318 21.7358 49.4226 21.0643 48.9707 20.2371C48.5187 19.4099 48.2829 18.4854 48.2829 17.5122C48.2829 16.7824 48.4204 16.072 48.6759 15.4005C48.9707 14.7485 49.3145 14.1646 49.7567 13.6877C50.2185 13.2011 50.7687 12.8119 51.3976 12.5199C52.0362 12.2474 52.7044 12.1112 53.402 12.1112C54.3256 12.1112 55.1902 12.3545 55.9763 12.8313L55.9664 12.8021ZM57.2732 19.2542C57.4894 18.6898 57.6073 18.0864 57.6073 17.483C57.6073 16.6559 57.4108 15.8871 57.0178 15.1864C56.6444 14.5052 56.1335 13.9407 55.4752 13.532C54.8365 13.1427 54.1291 12.9481 53.3823 12.9481C52.6258 12.9481 51.9085 13.1427 51.2797 13.532C50.6312 13.9407 50.1006 14.5052 49.7272 15.1864C49.3342 15.8871 49.1573 16.6461 49.1573 17.483C49.1573 18.3005 49.3539 19.0693 49.7272 19.7602C50.1202 20.4415 50.6312 21.0059 51.2698 21.4146C51.9085 21.8039 52.6159 22.018 53.3725 22.0277C53.9325 22.0277 54.473 21.8915 54.9937 21.6579C55.485 21.4146 55.9566 21.074 56.33 20.6848C56.723 20.2955 57.0178 19.8089 57.2438 19.2445L57.2732 19.2542ZM68.9656 12.2863C69.113 12.3837 69.1818 12.4615 69.2113 12.5588V12.6756C69.2113 12.7729 69.2113 12.8508 69.1425 12.9092L65.7625 17.6777V22.2905C65.7625 22.4073 65.7232 22.5046 65.6446 22.5824C65.5758 22.6797 65.4677 22.7284 65.3498 22.7284C65.2516 22.7284 65.1533 22.6797 65.0551 22.5922C64.9764 22.5143 64.9371 22.3975 64.9371 22.3002V17.6679L61.5768 12.8994C61.508 12.8411 61.4786 12.734 61.4786 12.6659C61.4786 12.5102 61.5768 12.3739 61.6947 12.3058C61.7438 12.2669 61.8323 12.2377 61.9207 12.2377C62.0779 12.2377 62.1762 12.2961 62.2449 12.3837L65.3498 16.7824L68.4547 12.4031C68.5922 12.2474 68.7102 12.2085 68.7888 12.2085L68.8674 12.2377L68.9656 12.2766V12.2863ZM75.5979 12.4518L79.1154 22.1153C79.135 22.164 79.1449 22.2126 79.1449 22.2613C79.1449 22.3099 79.1449 22.3586 79.1154 22.417C79.0761 22.5338 78.9975 22.6116 78.8992 22.67L78.7518 22.7089C78.6536 22.7089 78.4866 22.67 78.3588 22.4559L77.4745 20.023H72.9548L72.0705 22.417C72.0705 22.417 72.041 22.5143 71.9526 22.6116C71.874 22.67 71.7855 22.7089 71.6873 22.7089L71.5104 22.6603C71.363 22.563 71.2746 22.4364 71.2746 22.2905C71.2746 22.2321 71.2943 22.164 71.3139 22.0958L74.8118 12.4907C74.8708 12.3155 75.0083 12.1988 75.1852 12.1988C75.3129 12.1988 75.4799 12.2377 75.6077 12.4518H75.5979ZM73.2594 19.1472H77.1306L75.2048 13.8434L73.2692 19.1472H73.2594ZM87.8994 21.872C88.1451 21.872 88.3121 22.0472 88.3121 22.3002C88.3121 22.3975 88.263 22.5143 88.1942 22.5922C88.1156 22.6895 87.9977 22.7381 87.8798 22.7381H82.7312C82.5936 22.7381 82.4954 22.6895 82.4069 22.6116C82.3087 22.5143 82.2694 22.417 82.2694 22.3002V12.6659C82.2694 12.5394 82.3185 12.4226 82.3971 12.3447C82.5642 12.1696 82.8294 12.1696 82.9866 12.3447C83.0554 12.4421 83.0849 12.5394 83.0849 12.6367V21.8817H87.8601L87.8994 21.872ZM97.273 12.2377C97.3909 12.2377 97.499 12.2863 97.5677 12.3739C97.666 12.4518 97.6955 12.5686 97.6955 12.6659C97.6955 12.7924 97.6562 12.9092 97.5677 12.987C97.4891 13.0649 97.3909 13.1038 97.273 13.1038H94.3253V22.3197C94.3253 22.3975 94.2958 22.5143 94.1878 22.6116C94.0895 22.7284 93.9716 22.7576 93.893 22.7576C93.7751 22.7576 93.667 22.7089 93.5982 22.6213C93.5196 22.524 93.4705 22.4267 93.4705 22.3294V13.1038H90.5228C90.3951 13.1038 90.2968 13.0551 90.2281 12.9773C90.1298 12.8994 90.0807 12.7827 90.0807 12.6853C90.0807 12.5588 90.1298 12.4518 90.2084 12.3642C90.287 12.2669 90.4049 12.228 90.5032 12.228H97.2828L97.273 12.2377ZM108.052 12.3155C108.179 12.4129 108.248 12.4907 108.268 12.588L108.287 12.7048C108.287 12.8021 108.258 12.8702 108.209 12.9384L104.829 17.7069V22.2905C104.829 22.3878 104.79 22.5046 104.711 22.5824C104.632 22.6797 104.514 22.7284 104.416 22.7284C104.318 22.7284 104.2 22.6797 104.121 22.5922C104.043 22.5143 103.994 22.3975 103.994 22.3002V17.6679L100.633 12.8994C100.574 12.8411 100.555 12.734 100.555 12.6659C100.555 12.5102 100.623 12.3739 100.751 12.3058C100.81 12.2669 100.889 12.2377 100.987 12.2377C101.154 12.2377 101.252 12.2961 101.321 12.3837L104.426 16.7824L107.521 12.4031C107.668 12.2474 107.776 12.2085 107.855 12.2085L107.934 12.2377L108.032 12.2766L108.052 12.3155Z" fill="#241F4F"/>
</svg>
