<svg width="140" height="37" viewBox="0 0 140 37" fill="none" xmlns="http://www.w3.org/2000/svg">
<path fill-rule="evenodd" clip-rule="evenodd" d="M137.338 20.6803V6.12676H140V20.6803H137.338ZM130.273 20.6803L128.444 13.3061L126.628 20.6803H123.766L120.521 9.73993H123.231L125.177 18.0541L127.124 9.73993H129.95L131.858 18.0344L133.804 9.73993H136.382L133.137 20.6803H130.273V20.6803ZM119.041 19.2283C117.985 20.27 116.677 20.7905 115.115 20.7898C113.554 20.789 112.255 20.2685 111.217 19.2283C110.18 18.1876 109.662 16.8234 109.662 15.1357C109.662 13.4495 110.186 12.0919 111.236 11.0629C112.286 10.0354 113.588 9.52145 115.144 9.52108C116.7 9.52072 118.002 10.0347 119.051 11.0629C120.101 12.0915 120.625 13.4491 120.625 15.1357C120.625 16.8223 120.097 18.1865 119.041 19.2283V19.2283ZM117.073 12.724C116.824 12.4508 116.522 12.2342 116.186 12.0878C115.851 11.9414 115.489 11.8685 115.125 11.8737C114.763 11.8672 114.404 11.9396 114.071 12.0862C113.738 12.2327 113.44 12.4501 113.195 12.724C112.67 13.2908 112.407 14.1013 112.407 15.1554C112.407 16.2096 112.669 17.0201 113.195 17.5869C113.438 17.8603 113.735 18.0774 114.066 18.224C114.397 18.3706 114.755 18.4432 115.115 18.4371C115.48 18.4408 115.842 18.3661 116.178 18.2181C116.513 18.07 116.815 17.8516 117.063 17.577C117.607 17.0047 117.88 16.1943 117.88 15.1456C117.88 14.0984 117.611 13.2912 117.073 12.724V12.724ZM105.935 14.663C105.935 13.8106 105.705 13.1573 105.284 12.7054C104.864 12.2534 104.288 12.027 103.56 12.027C102.832 12.027 102.253 12.2534 101.827 12.7054C101.4 13.1573 101.144 13.8106 101.144 14.663V20.6814L98.4839 20.6803V6.12676L101.144 6.12783V11.3802C101.821 10.1875 102.959 9.62725 104.479 9.62725C105.692 9.62725 106.682 10.0369 107.448 10.8561C108.215 11.6753 108.598 12.813 108.597 14.2691V20.6803L105.935 20.6814V14.663V14.663ZM93.1559 14.2461C93.7552 14.3654 94.3521 14.5138 94.9465 14.6914C95.5277 14.8613 96.0535 15.189 96.4688 15.6402C96.8903 16.0943 97.1008 16.6972 97.1 17.449C97.1 18.4371 96.6948 19.241 95.8843 19.8607C95.0739 20.4804 94.0398 20.7901 92.7823 20.7898C91.525 20.7898 90.4942 20.4833 89.6898 19.8705C88.885 19.2578 88.4464 18.3266 88.3697 17.1798H91.1375C91.2195 18.099 91.7965 18.6155 92.8302 18.6155C93.3284 18.6155 93.7304 18.5002 94.0363 18.2697C94.1805 18.1694 94.298 18.0337 94.3783 17.8749C94.4586 17.7161 94.4991 17.5393 94.4962 17.3603C94.4962 16.9839 94.2854 16.6874 93.8638 16.4707C93.3782 16.231 92.8627 16.0613 92.332 15.9663C91.7316 15.8481 91.1347 15.7033 90.5414 15.5318C89.9635 15.3694 89.4381 15.0518 89.0191 14.6116C88.5976 14.1706 88.3871 13.5939 88.3878 12.8816C88.3878 11.9329 88.7771 11.1355 89.5556 10.4895C90.3342 9.84353 91.3682 9.52072 92.6577 9.52108C93.9469 9.52108 94.9809 9.84063 95.7598 10.4797C96.539 11.1198 96.9414 12.0368 96.9925 13.1311H94.2247C94.1672 12.2009 93.6211 11.6965 92.6002 11.6965C92.0892 11.6965 91.6936 11.8019 91.4133 12.0127C91.278 12.1098 91.1686 12.2402 91.0949 12.392C91.0213 12.5438 90.9858 12.7121 90.9917 12.8816C90.9917 13.2514 91.2025 13.5414 91.624 13.7515C92.1114 13.9847 92.6264 14.151 93.1559 14.2461V14.2461ZM84.3926 18.9985C83.7155 20.1934 82.6109 20.7908 81.0787 20.7908C79.8779 20.7908 78.8946 20.3805 78.1289 19.5598C77.3631 18.7391 76.9799 17.6 76.9791 16.1424V9.73993L79.6405 9.73887V15.7573C79.6405 16.6108 79.8715 17.2586 80.293 17.7182C80.7146 18.1777 81.2895 18.4076 82.0176 18.4076C82.7458 18.4076 83.3228 18.1777 83.7507 17.7182C84.1786 17.2586 84.4309 16.6108 84.4309 15.7573V9.73887L87.0934 9.73993V20.653H84.3926V18.9985ZM70.9081 20.7711C69.4667 20.7711 68.4053 20.1507 67.6112 18.8212V25.8244H64.8444L64.8434 9.62944H67.6112V11.3802C68.367 10.1437 69.4188 9.52108 70.8793 9.52108C72.3399 9.52108 73.5439 10.0442 74.4924 11.0903C75.4409 12.1364 75.9135 13.4856 75.9135 15.1368C75.9135 16.7881 75.4398 18.1395 74.4924 19.1921C73.5449 20.2448 72.3494 20.7711 70.9081 20.7711V20.7711ZM72.3303 12.7776C72.0732 12.5083 71.7663 12.2945 71.4276 12.1488C71.089 12.0032 70.7254 11.9286 70.3583 11.9296C69.9913 11.9305 69.628 12.0069 69.2901 12.1542C68.9521 12.3015 68.6462 12.5168 68.3904 12.7874C67.8326 13.3597 67.6112 14.1006 67.6112 15.1007C67.6112 16.1009 67.8326 16.9325 68.3904 17.5048C68.6458 17.7773 68.9521 17.9938 69.291 18.1414C69.6299 18.289 69.9943 18.3647 70.3624 18.3638C70.7305 18.3628 71.0945 18.2854 71.4327 18.1361C71.7709 17.9868 72.0762 17.7687 72.3303 17.4949C72.8871 16.9161 73.1656 16.1268 73.1659 15.127C73.1663 14.1272 72.8878 13.3441 72.3303 12.7776ZM53.1132 8.92694C53.1153 8.9335 53.1185 8.94113 53.1217 8.94879C53.8115 10.6741 54.1652 12.5219 54.1628 14.3873C54.1628 22.3315 47.882 28.7734 40.1385 28.7734C32.3908 28.7734 26.1143 22.3315 26.1143 14.3873C26.1143 6.44297 32.3908 4.92324e-06 40.1375 4.92324e-06H54.1862C53.0549 1.57723 52.447 3.48655 52.4521 5.44611C52.4515 6.6394 52.676 7.82151 53.1132 8.92694ZM40.1385 3.62526C38.0687 3.62937 36.0465 4.26406 34.3274 5.4491C32.6083 6.63414 31.2695 8.31636 30.4802 10.2832C29.6909 12.2501 29.4864 14.4133 29.8927 16.4995C30.2989 18.5858 31.2977 20.5014 32.7627 22.0044C34.2277 23.5075 36.0933 24.5304 38.1237 24.944C40.154 25.3575 42.2581 25.1432 44.1701 24.328C46.082 23.5129 47.7159 22.1335 48.8655 20.3641C50.015 18.5948 50.6285 16.5149 50.6285 14.3873C50.6255 11.5304 49.5187 8.79166 47.5515 6.77348C45.5843 4.7553 42.9179 3.62287 40.1385 3.62526V3.62526ZM40.1375 14.326C39.7349 14.3257 39.3487 14.4898 39.0638 14.7823C38.7789 15.0747 38.6187 15.4714 38.6184 15.8853H36.3978C36.3978 14.8658 36.7918 13.888 37.4931 13.1671C38.1944 12.4462 39.1456 12.0412 40.1375 12.0412C41.1293 12.0412 42.0806 12.4462 42.7819 13.1671C43.4832 13.888 43.8772 14.8658 43.8772 15.8853H41.6566C41.6563 15.4714 41.496 15.0747 41.2112 14.7823C40.9263 14.4898 40.5401 14.3257 40.1375 14.326V14.326ZM14.0488 14.326C13.8494 14.3257 13.6519 14.3659 13.4677 14.4442C13.2834 14.5224 13.1159 14.6372 12.9749 14.7821C12.8338 14.9269 12.7218 15.0988 12.6455 15.2881C12.5691 15.4774 12.5297 15.6803 12.5297 15.8853H10.309C10.309 14.8658 10.703 13.888 11.4044 13.1671C12.1057 12.4462 13.0569 12.0412 14.0488 12.0412C15.0406 12.0412 15.9918 12.4462 16.6932 13.1671C17.3945 13.888 17.7885 14.8658 17.7885 15.8853H15.5679C15.5676 15.4714 15.4073 15.0747 15.1225 14.7823C14.8376 14.4898 14.4514 14.3257 14.0488 14.326V14.326ZM25.7822 22.2725C25.7818 22.2738 25.7811 22.2749 25.78 22.2757C27.5482 25.6545 30.3893 28.3085 33.8301 29.7954C32.0832 32.4621 29.788 34.8925 27.066 37C23.6797 34.3804 20.9576 31.2596 19.1128 27.8072C19.1298 27.7995 19.1468 27.7908 19.1639 27.7842C17.5342 28.4393 15.7997 28.7748 14.0498 28.7734C6.30211 28.7734 0.0223772 22.3315 0.0223772 14.3873C0.0202281 12.4911 0.384972 10.6134 1.09542 8.86346C1.51707 7.77624 1.73382 6.61654 1.73414 5.44611C1.73926 3.48655 1.13129 1.57723 0 4.92324e-06H14.0498C16.3766 -0.00197164 18.6673 0.591238 20.7154 1.72613C22.7636 2.86101 24.5048 4.50193 25.7822 6.50098C24.9826 8.02481 24.4211 9.66837 24.1183 11.3715C23.4122 8.88467 21.8572 6.74307 19.7388 5.33984C17.6203 3.9366 15.0805 3.36592 12.5857 3.73249C10.0908 4.09906 7.80833 5.37829 6.15716 7.33541C4.50599 9.29252 3.59696 11.7962 3.59696 14.3867C3.59696 16.9773 4.50599 19.4809 6.15716 21.438C7.80833 23.3951 10.0908 24.6744 12.5857 25.0409C15.0805 25.4075 17.6203 24.8368 19.7388 23.4335C21.8572 22.0303 23.4122 19.8887 24.1183 17.4019C24.4209 19.1051 24.9824 20.7487 25.7822 22.2725V22.2725Z" fill="#3D4250"/>
</svg>
