<svg width="165" height="23" viewBox="0 0 165 23" fill="none" xmlns="http://www.w3.org/2000/svg">
<path d="M35.3591 11.3976C38.0886 11.3976 40.0386 9.99349 40.0386 7.65419V7.60229C40.0386 5.36679 38.3221 4.01455 35.385 4.01455H29.7703V11.3976H35.3591V11.3976ZM27.7174 3.15724C27.7174 2.58539 28.1855 2.11734 28.7314 2.11734H35.5417C37.7753 2.11734 39.5696 2.793 40.7143 3.9367C41.5975 4.82089 42.1175 6.09434 42.1175 7.52443L42.1166 7.57541C42.1166 10.5653 40.0887 12.3068 37.2554 12.8527L41.7792 18.676C41.9868 18.9086 42.1166 19.1431 42.1166 19.4286C42.1166 19.9754 41.5966 20.4434 41.0767 20.4434C40.6605 20.4434 40.3491 20.209 40.1155 19.8966L34.9939 13.2429H29.7694V19.4035C29.7694 19.9754 29.3014 20.4434 28.7304 20.4434C28.1845 20.4434 27.7165 19.9754 27.7165 19.4035V3.15724H27.7174Z" fill="black"/>
<path d="M46.2484 19.2738V3.15724C46.2484 2.58539 46.7165 2.11734 47.2624 2.11734H58.5696C59.0886 2.11734 59.5057 2.53348 59.5057 3.05343C59.5057 3.57338 59.0886 3.98953 58.5696 3.98953H48.3013V10.2011H57.4C57.9199 10.2011 58.3361 10.6432 58.3361 11.1372C58.3361 11.6571 57.9199 12.0724 57.4 12.0724H48.3013V18.4415H58.6994C59.2193 18.4415 59.6345 18.8576 59.6345 19.3767C59.6345 19.8966 59.2193 20.3128 58.6994 20.3128H47.2624C46.7165 20.3128 46.2484 19.8447 46.2484 19.2738" fill="black"/>
<path d="M69.2556 19.6307L62.2377 3.43628C62.1598 3.28057 62.133 3.15082 62.133 2.96824C62.133 2.44921 62.601 1.95522 63.1738 1.95522C63.6928 1.95522 64.0571 2.29258 64.2387 2.73468L70.53 17.8104L76.8454 2.68277C77.028 2.31946 77.3922 1.95522 77.8593 1.95522C78.4312 1.95522 78.8733 2.42326 78.8733 2.94321C78.8733 3.09892 78.8473 3.22867 78.7954 3.35843L71.7506 19.6307C71.5171 20.1506 71.1528 20.4889 70.555 20.4889H70.4512C69.8534 20.4889 69.4632 20.1506 69.2556 19.6307" fill="black"/>
<path d="M82.6607 2.99511C82.6607 2.42326 83.1288 1.95522 83.6747 1.95522C84.2456 1.95522 84.7136 2.42326 84.7136 2.99511V19.3712C84.7136 19.943 84.2456 20.4111 83.6747 20.4111C83.1288 20.4111 82.6607 19.943 82.6607 19.3712V2.99511V2.99511Z" fill="black"/>
<path d="M89.7883 19.2738V3.15724C89.7883 2.58539 90.2564 2.11734 90.8013 2.11734H102.11C102.629 2.11734 103.046 2.53348 103.046 3.05343C103.046 3.57338 102.629 3.98953 102.11 3.98953H91.8412V10.2011H100.939C101.46 10.2011 101.875 10.6432 101.875 11.1372C101.875 11.6571 101.46 12.0724 100.939 12.0724H91.8412V18.4415H102.239C102.758 18.4415 103.174 18.8576 103.174 19.3767C103.174 19.8966 102.758 20.3128 102.239 20.3128H90.8013C90.2564 20.3128 89.7883 19.8447 89.7883 19.2738" fill="black"/>
<path d="M105.837 3.46223C105.785 3.30652 105.734 3.15082 105.734 2.99418C105.734 2.44829 106.227 1.95522 106.799 1.95522C107.319 1.95522 107.709 2.34448 107.865 2.8116L112.882 17.2654L117.638 2.76063C117.794 2.29258 118.106 1.95522 118.652 1.95522H118.783C119.302 1.95522 119.64 2.29258 119.796 2.76063L124.552 17.2654L129.595 2.76063C129.752 2.29258 130.089 1.95522 130.583 1.95522C131.129 1.95522 131.623 2.44829 131.623 2.96823C131.623 3.12394 131.544 3.30652 131.493 3.46223L125.67 19.6297C125.488 20.1497 125.125 20.5139 124.604 20.5139H124.448C123.929 20.5139 123.565 20.1497 123.384 19.6297L118.652 5.64583L113.947 19.6297C113.766 20.1497 113.402 20.5139 112.882 20.5139H112.726C112.206 20.5139 111.842 20.1756 111.66 19.6297L105.837 3.46223V3.46223Z" fill="black"/>
<path d="M134.207 18.2275C133.974 18.0708 133.817 17.7845 133.817 17.4471C133.817 16.8752 134.26 16.4331 134.806 16.4331C135.065 16.4331 135.3 16.537 135.429 16.6667C137.144 18.1237 138.861 18.8253 141.174 18.8253C143.617 18.8253 145.229 17.5249 145.229 15.7315V15.6796C145.229 13.99 144.319 13.0289 140.498 12.2226C136.313 11.3134 134.389 9.96113 134.389 6.97119V6.92022C134.389 4.06096 136.911 1.95522 140.368 1.95522C142.76 1.95522 144.501 2.55302 146.164 3.74862C146.373 3.90525 146.606 4.19072 146.606 4.57998C146.606 5.12681 146.164 5.56798 145.619 5.56798C145.385 5.56798 145.202 5.51608 145.021 5.38632C143.488 4.26857 142.006 3.80052 140.316 3.80052C137.951 3.80052 136.443 5.09993 136.443 6.73763V6.78953C136.443 8.50601 137.379 9.46713 141.382 10.3254C145.437 11.2096 147.308 12.6897 147.308 15.4711V15.5239C147.308 18.6427 144.709 20.6706 141.096 20.6706C138.445 20.6706 136.235 19.8383 134.207 18.2275" fill="black"/>
<path d="M150.379 18.2481C150.771 18.2472 151.062 18.5373 151.062 18.9302V19.2213C151.062 19.6142 150.771 19.9192 150.379 19.9192C149.972 19.9192 149.681 19.6142 149.681 19.2213V18.9302C149.681 18.5373 149.972 18.2472 150.379 18.2472" fill="black"/>
<path d="M153.49 12.8951C153.49 12.5902 153.737 12.3279 154.042 12.3279C154.362 12.3279 154.609 12.5744 154.609 12.8951V19.4237C154.609 19.7425 154.377 19.9899 154.056 19.9899C153.737 19.9899 153.49 19.7425 153.49 19.4227V12.8951V12.8951ZM153.388 10.046C153.388 9.68179 153.679 9.44916 154.042 9.44916C154.42 9.44916 154.71 9.68179 154.71 10.046V10.2342C154.71 10.5836 154.42 10.8301 154.042 10.8301C153.679 10.8301 153.388 10.5836 153.388 10.2342V10.046Z" fill="black"/>
<path d="M163.436 16.1742V16.1445C163.436 14.5309 162.229 13.2074 160.644 13.2074C159.016 13.2074 157.896 14.5309 157.896 16.1167V16.1445C157.896 17.7581 159.089 19.0668 160.674 19.0668C162.301 19.0668 163.436 17.7581 163.436 16.1742ZM156.748 16.1742V16.1445C156.748 14.0221 158.406 12.2185 160.674 12.2185C162.927 12.2194 164.584 13.9934 164.584 16.1167V16.1445C164.584 18.267 162.913 20.0696 160.644 20.0696C158.391 20.0696 156.748 18.2966 156.748 16.1742" fill="black"/>
<path d="M0 11.3008C0 17.5411 5.05954 22.6006 11.2998 22.6006C17.5411 22.6006 22.6006 17.5411 22.6006 11.3008C22.6006 5.05953 17.5411 0 11.2998 0C5.05954 0 0 5.05953 0 11.3008V11.3008ZM8.06337 12.717L2.82496 8.80483H9.1839L11.2896 2.44589L13.4167 8.80483H19.7747L14.5549 12.7364L16.605 19.2103L11.2896 15.1304L6.01324 19.2103L8.06337 12.717V12.717Z" fill="url(#paint0_linear)"/>
<defs>
<linearGradient id="paint0_linear" x1="11.2999" y1="22.6004" x2="11.2999" y2="0" gradientUnits="userSpaceOnUse">
<stop stop-color="#33C886"/>
<stop offset="1" stop-color="#12CF6C"/>
</linearGradient>
</defs>
</svg>
