<svg width="141" height="25" viewBox="0 0 141 25" fill="none" xmlns="http://www.w3.org/2000/svg">
<path fill-rule="evenodd" clip-rule="evenodd" d="M18.7166 0.169922L7.5481 15.7074L0.953115 11.8994L0 13.5484L8.94159 20.9089L20.3665 1.12303L18.7166 0.169922ZM27.2169 0.68087L16.0475 16.2166L14.3986 15.2652L12.9711 17.7378L17.441 21.418L28.8659 1.63219L27.2169 0.68087Z" fill="#0CD347"/>
<path fill-rule="evenodd" clip-rule="evenodd" d="M34.4292 11.4215C36.5283 11.8851 39.2528 12.7569 39.1992 15.6734C39.22 16.2731 39.0913 16.8685 38.8246 17.4061C38.558 17.9436 38.1618 18.4063 37.6717 18.7525C36.6641 19.4886 35.4109 19.8691 33.8843 19.8691C31.1866 19.8691 29.1973 18.6704 28.3255 16.6819L30.8597 15.2098C31.3233 16.5176 32.3315 17.1718 33.8843 17.1723C35.4385 17.1723 36.2005 16.6543 36.2005 15.6458C36.2005 14.7739 35.0562 14.2558 33.6118 13.9012C31.568 13.384 28.815 12.5667 28.8704 9.70464C28.8504 9.12436 28.9684 8.54763 29.2147 8.02182C29.461 7.49602 29.8285 7.03617 30.2871 6.68005C31.2411 5.9172 32.4399 5.53577 33.8575 5.53577C36.1192 5.53577 37.9451 6.59876 38.8991 8.37011L36.4185 9.75823C35.954 8.72294 35.083 8.20484 33.8566 8.20484C32.7391 8.20484 31.8673 8.69614 31.8673 9.64926C31.8673 10.5488 33.0115 11.0124 34.4283 11.4206L34.4292 11.4215ZM61.1351 11.0678V19.5154H58.1927V11.2589C58.1927 9.3786 57.1833 8.28882 55.5487 8.28882C53.7228 8.28882 52.5785 9.48758 52.5785 11.886V19.5163H49.6352V11.2589C49.6352 9.37861 48.7089 8.28883 47.0733 8.28883C45.302 8.28883 44.0487 9.51528 44.0487 11.886V19.5163H41.1054V5.8904H44.0487V7.52508C44.9206 6.19052 46.2283 5.53667 47.9461 5.53667C49.6897 5.53667 50.9707 6.24502 51.8157 7.68943C52.7152 6.24502 54.1042 5.53667 55.9846 5.53667C59.0645 5.53667 61.136 7.68943 61.136 11.0687L61.1351 11.0678ZM68.6037 11.4215C70.7029 11.8851 73.4274 12.7569 73.3729 15.6734C73.3936 16.2729 73.2651 16.8681 72.9988 17.4056C72.7324 17.9431 72.3367 18.4059 71.8472 18.7525C70.8378 19.4886 69.5845 19.8691 68.0588 19.8691C65.3612 19.8691 63.3719 18.6704 62.5 16.6819L65.0342 15.2098C65.497 16.5176 66.5052 17.1718 68.0588 17.1723C69.6122 17.1723 70.3751 16.6543 70.3751 15.6458C70.3751 14.7739 69.2308 14.2558 67.7864 13.9012C65.7426 13.384 62.9896 12.5667 63.0449 9.70464C63.025 9.12436 63.143 8.54762 63.3892 8.02182C63.6355 7.49602 64.0031 7.03616 64.4617 6.68005C65.4157 5.9172 66.6144 5.53577 68.032 5.53577C70.2938 5.53577 72.1196 6.59876 73.0727 8.37011L70.593 9.75823C70.1303 8.72294 69.2585 8.20484 68.032 8.20484C66.9146 8.20484 66.0418 8.69614 66.0418 9.64926C66.0418 10.5488 67.187 11.0124 68.6037 11.4206L68.6037 11.4215ZM82.4449 18.0987C83.153 18.1132 83.8565 17.983 84.5124 17.7158C85.1683 17.4487 85.7627 17.0504 86.2591 16.5453C86.7628 16.0418 87.16 15.4421 87.427 14.7819C87.6941 14.1217 87.8255 13.4145 87.8134 12.7024C87.8279 11.9942 87.6976 11.2904 87.4303 10.6343C87.163 9.97829 86.7645 9.38377 86.2591 8.8873C85.7583 8.38606 85.1637 7.98844 84.5091 7.71715C83.8546 7.44586 83.153 7.30622 82.4444 7.30622C81.7359 7.30622 81.0343 7.44586 80.3798 7.71715C79.7252 7.98844 79.1305 8.38606 78.6297 8.8873C78.1245 9.38382 77.726 9.97834 77.4587 10.6344C77.1914 11.2904 77.061 11.9942 77.0755 12.7024C77.0634 13.4145 77.1948 14.1217 77.4618 14.7819C77.7289 15.4421 78.1261 16.0418 78.6297 16.5453C79.1261 17.0504 79.7205 17.4488 80.3764 17.7159C81.0324 17.983 81.7359 18.1133 82.444 18.0987H82.4449ZM87.541 7.63405C88.2143 8.29239 88.7455 9.08184 89.1016 9.95361C89.4578 10.8254 89.6313 11.7609 89.6116 12.7024C89.6313 13.6441 89.4578 14.5798 89.1017 15.4517C88.7455 16.3236 88.2143 17.1132 87.541 17.7717C86.9023 18.4412 86.1318 18.9708 85.278 19.3272C84.4242 19.6836 83.5057 19.859 82.5807 19.8423C80.1554 19.8423 78.3296 18.8347 77.0764 16.8445V19.5154H75.2773V0.169922H77.0764V8.56037C78.3296 6.57107 80.1554 5.56257 82.5807 5.56257C83.5058 5.54603 84.4243 5.72158 85.2781 6.07814C86.1318 6.4347 86.9024 6.9645 87.541 7.63406V7.63405ZM101.436 5.8904H103.235V19.5154H101.436V17.3894C100.427 19.025 98.9012 19.8426 96.8577 19.8423C93.5598 19.8423 91.516 17.6627 91.516 14.2558V5.89039H93.315V14.2567C93.315 16.6819 94.6496 18.0996 97.0212 18.0996C99.6367 18.0996 101.436 16.4917 101.436 13.0303L101.436 5.8904ZM124.76 11.0133V19.5154H122.962V11.0133C122.962 8.64166 121.626 7.30622 119.637 7.30622C117.375 7.30622 115.849 8.77833 115.849 11.9673V19.5154H114.05V11.0133C114.05 8.61486 112.824 7.30622 110.861 7.30622C108.681 7.30622 106.937 8.80602 106.937 11.9673V19.5154H105.137V5.8904H106.936V7.8797C107.917 6.32631 109.307 5.56346 111.106 5.56346C113.068 5.56346 114.458 6.3808 115.248 8.04406C116.229 6.3808 117.701 5.56346 119.663 5.56346C122.715 5.56346 124.759 7.66264 124.759 11.0142L124.76 11.0133ZM133.831 18.0987C134.539 18.1132 135.243 17.9828 135.899 17.7157C136.555 17.4486 137.149 17.0503 137.646 16.5453C138.15 16.0418 138.547 15.4421 138.814 14.7819C139.081 14.1217 139.212 13.4145 139.2 12.7024C139.215 11.9942 139.085 11.2904 138.817 10.6343C138.55 9.97829 138.151 9.38377 137.646 8.8873C137.145 8.38606 136.55 7.98844 135.896 7.71715C135.241 7.44586 134.54 7.30622 133.831 7.30622C133.122 7.30622 132.421 7.44586 131.766 7.71715C131.111 7.98844 130.517 8.38606 130.016 8.8873C129.511 9.38387 129.112 9.97843 128.845 10.6345C128.578 11.2905 128.448 11.9942 128.462 12.7024C128.45 13.4145 128.582 14.1217 128.849 14.7819C129.116 15.4421 129.513 16.0418 130.017 16.5453C130.513 17.0505 131.107 17.449 131.763 17.7161C132.419 17.9833 133.123 18.1134 133.831 18.0987V18.0987ZM138.927 7.63405C139.6 8.29235 140.132 9.08177 140.488 9.95354C140.844 10.8253 141.018 11.7609 140.998 12.7024C141.018 13.6441 140.844 14.5799 140.488 15.4518C140.132 16.3237 139.6 17.1133 138.927 17.7717C138.289 18.4412 137.518 18.9708 136.664 19.3272C135.811 19.6836 134.893 19.859 133.968 19.8423C131.542 19.8423 129.716 18.8347 128.462 16.8445V24.9661H126.665V5.8895H128.463V8.56037C129.717 6.57107 131.543 5.56257 133.968 5.56257C134.893 5.54603 135.812 5.7216 136.665 6.07815C137.519 6.43471 138.289 6.96451 138.928 7.63406" fill="#1B1F25"/>
</svg>
